NotoSansDisplay-CondensedItalic.ufo
<glyph name="overscore" format="2">
  <advance width="388"/>
  <unicode hex="00AF"/>
  <outline>
    <contour>
      <point x="94" y="760" type="line"/>
      <point x="488" y="760" type="line"/>
      <point x="501" y="821" type="line"/>
      <point x="108" y="821" type="line"/>
    </contour>
  </outline>
</glyph>
<glyph name="uni0191" format="2">
  <advance width="436"/>
  <unicode hex="0191"/>
  <anchor x="65" y="0" name="bottom"/>
  <anchor x="392" y="714" name="top"/>
  <anchor x="532" y="714" name="topright"/>
  <outline>
    <contour>
      <point x="77" y="-14" type="curve" smooth="yes"/>
      <point x="162" y="-14"/>
      <point x="206" y="42"/>
      <point x="224" y="130" type="curve" smooth="yes"/>
      <point x="267" y="337" type="line"/>
      <point x="422" y="337" type="line"/>
      <point x="437" y="409" type="line"/>
      <point x="284" y="409" type="line"/>
      <point x="332" y="642" type="line"/>
      <point x="498" y="642" type="line"/>
      <point x="514" y="714" type="line"/>
      <point x="268" y="714" type="line"/>
      <point x="145" y="134" type="line" smooth="yes"/>
      <point x="135" y="87"/>
      <point x="114" y="54"/>
      <point x="75" y="54" type="curve" smooth="yes"/>
      <point x="36" y="54"/>
      <point x="22" y="82"/>
      <point x="22" y="117" type="curve" smooth="yes"/>
      <point x="22" y="130"/>
      <point x="24" y="146"/>
      <point x="27" y="155" type="curve"/>
      <point x="-38" y="179" type="line"/>
      <point x="-45" y="162"/>
      <point x="-48" y="141"/>
      <point x="-48" y="113" type="curve" smooth="yes"/>
      <point x="-48" y="44"/>
      <point x="-7" y="-14"/>
    </contour>
  </outline>
</glyph>
<glyph name="tildedoublecomb" format="2">
  <unicode hex="0360"/>
  <anchor x="222" y="529" name="_top"/>
  <anchor x="261" y="733" name="top"/>
  <outline>
    <contour>
      <point x="-31" y="607" type="curve"/>
      <point x="17" y="607" type="line"/>
      <point x="31" y="646"/>
      <point x="56" y="671"/>
      <point x="106" y="671" type="curve" smooth="yes"/>
      <point x="210" y="671"/>
      <point x="278" y="608"/>
      <point x="380" y="608" type="curve" smooth="yes"/>
      <point x="452" y="608"/>
      <point x="508" y="645"/>
      <point x="536" y="733" type="curve"/>
      <point x="488" y="733" type="line"/>
      <point x="476" y="696"/>
      <point x="452" y="669"/>
      <point x="402" y="669" type="curve" smooth="yes"/>
      <point x="296" y="669"/>
      <point x="228" y="732"/>
      <point x="124" y="732" type="curve" smooth="yes"/>
      <point x="53" y="732"/>
      <point x="-3" y="695"/>
    </contour>
  </outline>
</glyph>
<glyph name="uni1D24" format="2">
  <advance width="387"/>
  <unicode hex="1D24"/>
  <anchor x="149" y="0" name="bottom"/>
  <anchor x="307" y="760" name="top"/>
  <outline>
    <contour>
      <point x="154" y="-12" type="curve" smooth="yes"/>
      <point x="206" y="-12"/>
      <point x="252" y="7"/>
      <point x="284" y="34" type="curve"/>
      <point x="262" y="92" type="line"/>
      <point x="228" y="68"/>
      <point x="201" y="57"/>
      <point x="167" y="57" type="curve" smooth="yes"/>
      <point x="122" y="57"/>
      <point x="98" y="85"/>
      <point x="98" y="134" type="curve" smooth="yes"/>
      <point x="98" y="189"/>
      <point x="144" y="252"/>
      <point x="259" y="328" type="curve"/>
      <point x="273" y="400" type="line"/>
      <point x="392" y="481"/>
      <point x="442" y="556"/>
      <point x="442" y="636" type="curve" smooth="yes"/>
      <point x="442" y="715"/>
      <point x="392" y="765"/>
      <point x="307" y="765" type="curve" smooth="yes"/>
      <point x="256" y="765"/>
      <point x="208" y="746"/>
      <point x="176" y="719" type="curve"/>
      <point x="199" y="662" type="line"/>
      <point x="233" y="686"/>
      <point x="258" y="696"/>
      <point x="293" y="696" type="curve" smooth="yes"/>
      <point x="339" y="696"/>
      <point x="362" y="668"/>
      <point x="362" y="619" type="curve" smooth="yes"/>
      <point x="362" y="563"/>
      <point x="315" y="501"/>
      <point x="202" y="426" type="curve"/>
      <point x="186" y="353" type="line"/>
      <point x="68" y="272"/>
      <point x="19" y="198"/>
      <point x="19" y="117" type="curve" smooth="yes"/>
      <point x="19" y="37"/>
      <point x="69" y="-12"/>
    </contour>
  </outline>
</glyph>
<glyph name="quotedblleft" format="2">
  <advance width="323"/>
  <unicode hex="201C"/>
  <outline>
    <contour>
      <point x="216" y="470" type="line"/>
      <point x="296" y="470" type="line"/>
      <point x="317" y="544"/>
      <point x="356" y="644"/>
      <point x="388" y="714" type="curve"/>
      <point x="328" y="714" type="line"/>
      <point x="286" y="646"/>
      <point x="247" y="564"/>
      <point x="213" y="481" type="curve"/>
    </contour>
    <contour>
      <point x="64" y="470" type="line"/>
      <point x="143" y="470" type="line"/>
      <point x="161" y="536"/>
      <point x="204" y="651"/>
      <point x="235" y="714" type="curve"/>
      <point x="175" y="714" type="line"/>
      <point x="133" y="647"/>
      <point x="95" y="565"/>
      <point x="60" y="481" type="curve"/>
    </contour>
  </outline>
</glyph>
<glyph name="versicle" format="2">
  <advance width="397"/>
  <unicode hex="2123"/>
  <anchor x="135" y="0" name="bottom"/>
  <anchor x="275" y="714" name="top"/>
  <anchor x="474" y="714" name="topright"/>
  <outline>
    <contour>
      <point x="15" y="-145" type="line"/>
      <point x="64" y="-145" type="line"/>
      <point x="350" y="803" type="line"/>
      <point x="134" y="857" type="line"/>
      <point x="123" y="814" type="line"/>
      <point x="293" y="773" type="line"/>
    </contour>
    <component base="V"/>
  </outline>
</glyph>
<glyph name="enotch" format="2">
  <advance width="492"/>
  <unicode hex="2C78"/>
  <anchor x="135" y="0" name="bottom"/>
  <anchor x="251" y="546" name="top"/>
  <anchor x="413" y="536" name="topright"/>
  <outline>
    <contour>
      <point x="333" y="-10" type="curve" smooth="yes"/>
      <point x="412" y="-10"/>
      <point x="458" y="52"/>
      <point x="458" y="132" type="curve" smooth="yes"/>
      <point x="458" y="144"/>
      <point x="457" y="155"/>
      <point x="454" y="163" type="curve"/>
      <point x="394" y="163" type="line"/>
      <point x="396" y="155"/>
      <point x="397" y="145"/>
      <point x="397" y="135" type="curve" smooth="yes"/>
      <point x="397" y="91"/>
      <point x="374" y="53"/>
      <point x="332" y="53" type="curve" smooth="yes"/>
      <point x="310" y="53"/>
      <point x="290" y="66"/>
      <point x="281" y="86" type="curve"/>
      <point x="255" y="22" type="line"/>
      <point x="269" y="5"/>
      <point x="296" y="-10"/>
    </contour>
    <component base="e"/>
  </outline>
</glyph>
<glyph name="uniA662" format="2">
  <advance width="559"/>
  <unicode hex="A662"/>
  <anchor x="134" y="-191" name="bottom"/>
  <anchor x="342" y="714" name="top"/>
  <outline>
    <contour>
      <point x="247" y="0" type="line"/>
      <point x="327" y="0" type="line"/>
      <point x="463" y="641" type="line"/>
      <point x="622" y="641" type="line"/>
      <point x="638" y="714" type="line"/>
      <point x="399" y="714" type="line"/>
    </contour>
    <component base="afii10021"/>
  </outline>
</glyph>
<glyph name="uniA665" format="2">
  <advance width="494"/>
  <unicode hex="A665"/>
  <anchor x="135" y="0" name="bottom"/>
  <anchor x="247" y="529" name="top"/>
  <outline>
    <contour>
      <point x="204" y="0" type="line"/>
      <point x="281" y="0" type="line"/>
      <point x="380" y="468" type="line"/>
      <point x="524" y="468" type="line"/>
      <point x="539" y="536" type="line"/>
      <point x="318" y="536" type="line"/>
    </contour>
    <component base="afii10077"/>
  </outline>
</glyph>
<glyph name="uniA666" format="2">
  <advance width="750"/>
  <unicode hex="A666"/>
  <anchor x="264" y="0" name="bottom"/>
  <anchor x="395" y="714" name="top"/>
  <anchor x="712" y="714" name="topright"/>
  <outline>
    <contour>
      <point x="633" y="641" type="line"/>
      <point x="813" y="641" type="line"/>
      <point x="828.997" y="714" type="line"/>
      <point x="575" y="714" type="line"/>
    </contour>
    <component base="M"/>
  </outline>
</glyph>
<glyph name="uniA74B" format="2">
  <advance width="400"/>
  <unicode hex="A74B"/>
  <anchor x="143" y="0" name="bottom"/>
  <anchor x="200" y="268" name="center"/>
  <anchor x="257" y="536" name="top"/>
  <anchor x="437" y="536" name="topright"/>
  <outline>
    <contour>
      <point x="-4" y="247" type="line"/>
      <point x="404" y="247" type="line"/>
      <point x="417" y="307" type="line"/>
      <point x="10" y="307" type="line"/>
    </contour>
    <component base="o"/>
  </outline>
</glyph>
<glyph name="uniA758" format="2">
  <advance width="634"/>
  <unicode hex="A758"/>
  <anchor x="153" y="-110" name="bottom"/>
  <anchor x="330" y="714" name="top"/>
  <anchor x="564" y="714" name="topright"/>
  <outline>
    <contour>
      <point x="124" y="-175" type="line"/>
      <point x="500" y="33" type="line" smooth="yes"/>
      <point x="583" y="77"/>
      <point x="620" y="120"/>
      <point x="620" y="201" type="curve" smooth="yes"/>
      <point x="620" y="276"/>
      <point x="571" y="324"/>
      <point x="492" y="325" type="curve"/>
      <point x="492" y="275" type="line"/>
      <point x="543" y="275"/>
      <point x="569" y="243"/>
      <point x="569" y="197" type="curve" smooth="yes"/>
      <point x="569" y="151"/>
      <point x="546" y="114"/>
      <point x="479" y="77" type="curve" smooth="yes"/>
      <point x="102" y="-132" type="line"/>
    </contour>
    <component base="Q"/>
  </outline>
</glyph>
<glyph name="uniA75C" format="2">
  <advance width="512"/>
  <unicode hex="A75C"/>
  <outline>
    <contour>
      <point x="10" y="152" type="line"/>
      <point x="450" y="152" type="line"/>
      <point x="465" y="223" type="line"/>
      <point x="127" y="223" type="line"/>
      <point x="127" y="226" type="line"/>
      <point x="260" y="356" type="line" smooth="yes"/>
      <point x="352" y="446"/>
      <point x="388" y="509"/>
      <point x="388" y="587" type="curve" smooth="yes"/>
      <point x="388" y="673"/>
      <point x="335" y="724"/>
      <point x="255" y="724" type="curve" smooth="yes"/>
      <point x="195" y="724"/>
      <point x="148" y="701"/>
      <point x="104" y="658" type="curve"/>
      <point x="138" y="605" type="line"/>
      <point x="173" y="636"/>
      <point x="201" y="653"/>
      <point x="240" y="653" type="curve" smooth="yes"/>
      <point x="283" y="653"/>
      <point x="307" y="626"/>
      <point x="307" y="574" type="curve" smooth="yes"/>
      <point x="307" y="513"/>
      <point x="277" y="469"/>
      <point x="188" y="380" type="curve" smooth="yes"/>
      <point x="20" y="211" type="line"/>
    </contour>
    <contour>
      <point x="260" y="0" type="line"/>
      <point x="337" y="0" type="line"/>
      <point x="411" y="351" type="line"/>
      <point x="335" y="351" type="line"/>
    </contour>
  </outline>
</glyph>
<glyph name="uniA75F" format="2">
  <advance width="332"/>
  <unicode hex="A75F"/>
  <anchor x="109" y="0" name="bottom"/>
  <anchor x="223" y="536" name="top"/>
  <anchor x="369" y="536" name="topright"/>
  <outline>
    <contour>
      <point x="-49" y="-90" type="line"/>
      <point x="-6" y="-90" type="line"/>
      <point x="290" y="624" type="line"/>
      <point x="247" y="624" type="line"/>
    </contour>
    <component base="v"/>
  </outline>
</glyph>
<glyph name="uniA774" format="2">
  <advance width="555"/>
  <unicode hex="A774"/>
  <anchor x="145" y="0" name="bottom"/>
  <anchor x="259" y="536" name="top"/>
  <anchor x="441" y="536" name="topright"/>
  <outline>
    <contour>
      <point x="247" y="-157" type="line"/>
      <point x="309" y="-157" type="line"/>
      <point x="534" y="228" type="line"/>
      <point x="472" y="228" type="line"/>
    </contour>
    <contour>
      <point x="280" y="0" type="line"/>
      <point x="495" y="0" type="line"/>
      <point x="509" y="68" type="line"/>
      <point x="294" y="68" type="line"/>
    </contour>
    <component base="n"/>
  </outline>
</glyph>
<glyph name="uniA781" format="2">
  <advance width="209"/>
  <unicode hex="A781"/>
  <outline>
    <contour>
      <point x="-50" y="-240" type="line"/>
      <point x="30" y="-240" type="line"/>
      <point x="195" y="536" type="line"/>
      <point x="115" y="536" type="line"/>
    </contour>
  </outline>
</glyph>
<glyph name="uniAB63" format="2">
  <advance width="639"/>
  <unicode hex="AB63"/>
  <anchor x="382" y="0" name="bottom"/>
  <anchor x="439" y="268" name="center"/>
  <anchor x="496" y="536" name="top"/>
  <anchor x="676" y="536" name="topright"/>
  <outline>
    <contour>
      <point x="121" y="-10" type="curve" smooth="yes"/>
      <point x="168" y="-10"/>
      <point x="220" y="22"/>
      <point x="264" y="113" type="curve"/>
      <point x="303" y="113" type="line"/>
      <point x="393" y="536" type="line"/>
      <point x="331" y="536" type="line"/>
      <point x="270" y="248" type="line" smooth="yes"/>
      <point x="245" y="128"/>
      <point x="207" y="60"/>
      <point x="147" y="60" type="curve" smooth="yes"/>
      <point x="118" y="60"/>
      <point x="105" y="79"/>
      <point x="105" y="110" type="curve" smooth="yes"/>
      <point x="105" y="135"/>
      <point x="109" y="163"/>
      <point x="116" y="192" type="curve" smooth="yes"/>
      <point x="189" y="536" type="line"/>
      <point x="112" y="536" type="line"/>
      <point x="36" y="181" type="line" smooth="yes"/>
      <point x="30" y="153"/>
      <point x="25" y="118"/>
      <point x="25" y="94" type="curve" smooth="yes"/>
      <point x="25" y="27"/>
      <point x="58" y="-10"/>
    </contour>
    <component base="o" xOffset="239"/>
  </outline>
</glyph>
<glyph name="uniFE21" format="2">
  <unicode hex="FE21"/>
  <outline>
    <contour>
      <point x="310" y="587" type="curve"/>
      <point x="366" y="587" type="line"/>
      <point x="328" y="710"/>
      <point x="235" y="773"/>
      <point x="91" y="773" type="curve"/>
      <point x="91" y="707" type="line"/>
      <point x="201" y="707"/>
      <point x="275" y="667"/>
    </contour>
  </outline>
</glyph>
<glyph name="uniFE22" format="2">
  <unicode hex="FE22"/>
  <outline>
    <contour>
      <point x="-189" y="607" type="curve"/>
      <point x="-144" y="607" type="line"/>
      <point x="-138" y="646"/>
      <point x="-114" y="670"/>
      <point x="-64" y="670" type="curve" smooth="yes"/>
      <point x="-14" y="670"/>
      <point x="33" y="654"/>
      <point x="83" y="638" type="curve"/>
      <point x="83" y="701" type="line"/>
      <point x="37" y="717"/>
      <point x="-11" y="732"/>
      <point x="-66" y="732" type="curve" smooth="yes"/>
      <point x="-133" y="732"/>
      <point x="-179" y="694"/>
    </contour>
  </outline>
</glyph>
<glyph name="uniFE23" format="2">
  <unicode hex="FE23"/>
  <outline>
    <contour>
      <point x="229" y="608" type="curve" smooth="yes"/>
      <point x="294" y="608"/>
      <point x="344" y="645"/>
      <point x="353" y="733" type="curve"/>
      <point x="309" y="733" type="line"/>
      <point x="303" y="695"/>
      <point x="279" y="670"/>
      <point x="226" y="670" type="curve" smooth="yes"/>
      <point x="179" y="670"/>
      <point x="130" y="686"/>
      <point x="81" y="701" type="curve"/>
      <point x="81" y="638" type="line"/>
      <point x="127" y="623"/>
      <point x="177" y="608"/>
    </contour>
  </outline>
</glyph>
<glyph name="hbar.sc" format="2">
  <advance width="409"/>
  <anchor x="147" y="0" name="bottom"/>
  <anchor x="268" y="571" name="top"/>
  <anchor x="225" y="286" name="center"/>
  <anchor x="451" y="571" name="topright"/>
  <outline>
    <contour>
      <point x="40" y="422" type="line"/>
      <point x="444" y="422" type="line"/>
      <point x="456" y="480" type="line"/>
      <point x="52" y="480" type="line"/>
    </contour>
    <component base="h.sc"/>
  </outline>
</glyph>
<glyph name="oslash.sc" format="2">
  <advance width="427"/>
  <anchor x="148" y="-40" name="bottom"/>
  <anchor x="285" y="605" name="top"/>
  <anchor x="234" y="286" name="center"/>
  <anchor x="469" y="571" name="topright"/>
  <outline>
    <contour>
      <point x="39" y="-40" type="line"/>
      <point x="443" y="581" type="line"/>
      <point x="403" y="605" type="line"/>
      <point x="0" y="-17" type="line"/>
    </contour>
    <component base="o.sc"/>
  </outline>
</glyph>
